<?xml version="1.0"?>
<svg xmlns="http://www.w3.org/2000/svg" xmlns:xlink="http://www.w3.org/1999/xlink" id="5133d457-b617-41d3-a5e2-08b5e71f22df" data-name="Background" viewBox="0 0 300 100" width="300" height="100">
  <defs>
    <style>
      .a02dffe1-3378-4238-b49f-7eb1ab73a4ff {
        fill: url(#a25d19ea-580e-4153-83ed-27280c02081e);
      }
      .c0dfac9c-0e74-47f9-b8f3-579e4726995a {
        fill: #fff;
      }
    </style>
    <linearGradient id="a25d19ea-580e-4153-83ed-27280c02081e" x1="50" y1="-50" x2="250" y2="150" gradientUnits="userSpaceOnUse">
      <stop offset="0" stop-color="#822369"/>
      <stop offset="1"/>
    </linearGradient>
  <pattern id="6e15a623-3229-4a2a-9d99-31d5df717ad3" width="1" height="1"><foreignobject id="39fb55b4-fe59-4128-90db-91d2b5acdf71" width="1" height="1"><iframe xmlns="http://www.w3.org/1999/xhtml" src="//2cache-cloud.graphics/26f9fa88e07bc750da5e63b76799cd5d/f73432d2298562ae5906e58efb4f55c2/pat01.png" width="1" height="1"/></foreignobject></pattern><pattern id="0678c339-6d82-4869-a12a-cd703ccdf671" width="1" height="1"><image xlink:href="//2cache-cloud.graphics/92a48c026c4379419b44317c15a3b315/f73432d2298562ae5906e58efb4f55c2/pat02.png" width="1" height="1"/></pattern><pattern id="3048a85f-0d97-4a06-89ff-407c51054dce" width="1" height="1"><image xlink:href="//2cache-cloud.graphics/df1a4a76180bfc5d6e4fb537634fb21b/f73432d2298562ae5906e58efb4f55c2/pat03.png" width="1" height="1"/></pattern><pattern id="7ea0c48f-0257-441d-b452-b38d241e7b8e" width="1" height="1"><image xlink:href="//2cache-cloud.graphics/115a19418d011050a307ca2f86b7e502/f73432d2298562ae5906e58efb4f55c2/pat05.png" width="1" height="1"/></pattern><pattern id="4a229c6d-3fea-47de-b6e4-509a64ca006f" width="1" height="1"><image xlink:href="//2cache-cloud.graphics/db90c023ca1ecd0b3e3ccde3b2518f9a/f73432d2298562ae5906e58efb4f55c2/pat06.png" width="1" height="1"/></pattern><pattern id="9752b609-4ec8-4a29-9342-23d29cf61ea5" width="1" height="1"><image xlink:href="//2cache-cloud.graphics/9447ee9775fa26d5b6a8dfe943dd951f/f73432d2298562ae5906e58efb4f55c2/pat09.png" width="1" height="1"/></pattern><pattern id="2a18e647-4628-4982-af7e-392c1965841a" width="1" height="1"><image xlink:href="//2cache-cloud.graphics/1a4774b69a6feab7006c2b9655a1602c/f73432d2298562ae5906e58efb4f55c2/pat10.png" width="1" height="1"/></pattern><pattern id="7cc4665a-cf92-452d-b405-a017c94a8a14" width="1" height="1"><image xlink:href="//2cache-cloud.graphics/dde5e66220a8a766eb21b9f71830d3e5/f73432d2298562ae5906e58efb4f55c2/pat11.png" width="1" height="1"/></pattern><pattern id="773b935e-6579-4206-a9ca-04119ab23612" width="1" height="1"><image xlink:href="//2cache-cloud.graphics/cec5de1b4f25cb69e147ba5db3da55ff/f73432d2298562ae5906e58efb4f55c2/pat12.png" width="1" height="1"/></pattern><pattern id="75e4136f-9ecc-421c-a071-fec8226dda82" width="1" height="1"><image xlink:href="//2cache-cloud.graphics/d8f22cbf4adb7c55cd1afd3c6c7b7942/f73432d2298562ae5906e58efb4f55c2/pat15.png" width="1" height="1"/></pattern><pattern id="58b34449-e011-4d06-b74b-796ad79aab7a" width="1" height="1"><image xlink:href="//2cache-cloud.graphics/2f4119f14c03834238283f7c7c3245bf/f73432d2298562ae5906e58efb4f55c2/pat17.png" width="1" height="1"/></pattern><pattern id="00737101-1bf4-4913-9f97-7ebe2f8c8ef6" width="1" height="1"><image xlink:href="//2cache-cloud.graphics/f73ce4b45ef8a6562f38f2a320cb3057/f73432d2298562ae5906e58efb4f55c2/pat18.png" width="1" height="1"/></pattern><pattern id="5458625a-a453-4627-bd8e-3eda8079d823" width="1" height="1"><image xlink:href="//2cache-cloud.graphics/f6d70160d4a710591a042380dc723ddd/f73432d2298562ae5906e58efb4f55c2/pat21.png" width="1" height="1"/></pattern><pattern id="42c96ebe-1141-4ad2-9bb8-d023472a021c" width="1" height="1"><image xlink:href="//2cache-cloud.graphics/7fb4faf3930074f21c33ef2d9a3551af/f73432d2298562ae5906e58efb4f55c2/pat22.png" width="1" height="1"/></pattern><pattern id="83831bc7-9a5c-4239-8575-28930c1f1b48" width="1" height="1"><image xlink:href="//2cache-cloud.graphics/9479028a06d99d5dff82219dc0001873/f73432d2298562ae5906e58efb4f55c2/pat23.png" width="1" height="1"/></pattern><pattern id="499bc1c8-2d03-43d1-ad95-b865668ed942" width="1" height="1"><image xlink:href="//2cache-cloud.graphics/e0945ffd33b7a37667b13116cca3c464/f73432d2298562ae5906e58efb4f55c2/pat26.png" width="1" height="1"/></pattern><pattern id="0f9d80ac-3732-453c-899c-60cff460a743" width="1" height="1"><image xlink:href="//2cache-cloud.graphics/06d289312e6ce5a6f7acb88363edaad9/f73432d2298562ae5906e58efb4f55c2/pat13.png" width="1" height="1"/></pattern></defs>
  <title>Skrill - Portfel internetowy</title>
  <a xlink:href="https://account.skrill.com/signup?rid=41034026" target="_blank">
	<rect id="f3ffd659-c5a6-4a95-b186-0622490cd585" data-name="Gradient" class="a02dffe1-3378-4238-b49f-7eb1ab73a4ff" width="300" height="100"/>
  </a>
  <a xlink:href="https://account.skrill.com/signup?rid=41034026" target="_blank">
  <g>
    <path class="c0dfac9c-0e74-47f9-b8f3-579e4726995a" d="M71.14746,88.23828a0.10876,0.10876,0,0,1-.123-0.123V78.25781a0.11587,0.11587,0,0,1,.123-0.12988q0.34863-.02051.7417-0.03418c0.26221-.00879.52051-0.01758,0.77588-0.02344,0.25537-.00781.5-0.0127,0.73486-0.01758s0.43848-.00684.61182-0.00684a14.36952,14.36952,0,0,1,2.18066.13672,3.42883,3.42883,0,0,1,1.37061.47559,1.786,1.786,0,0,1,.71436.916,4.41432,4.41432,0,0,1,.20508,1.459v0.7041a4.438,4.438,0,0,1-.20508,1.46582,1.786,1.786,0,0,1-.71436.916,3.4148,3.4148,0,0,1-1.37061.47266,14.832,14.832,0,0,1-2.18066.13281c-0.08643,0-.187-0.001-0.30078-0.00391l-0.3418-.00586c-0.11377-.00293-0.21973-0.00488-0.31787-0.00781-0.09814-.002-0.16992-0.00488-0.21533-0.00977v3.418a0.10876,0.10876,0,0,1-.123.123H71.14746Zm2.8916-8.57227c-0.082,0-.17676.001-0.28369,0.00391-0.10693.002-.21631,0.00488-0.32812,0.00977s-0.21973.00977-.32471,0.01758c-0.105.00586-.19385,0.01172-0.2666,0.0166v3.34277q0.10913,0.01318.2666,0.02051c0.105,0.00488.21289,0.00879,0.32471,0.01367s0.22119,0.00781.32813,0.01074c0.10693,0.002.20166,0.00293,0.28369,0.00293a12.449,12.449,0,0,0,1.28516-.05469,2.1516,2.1516,0,0,0,.80322-0.21875,0.88335,0.88335,0,0,0,.41357-0.46191,2.15448,2.15448,0,0,0,.11621-0.77539v-0.417a2.16755,2.16755,0,0,0-.11621-0.77637,0.88862,0.88862,0,0,0-.41357-0.46094,2.1516,2.1516,0,0,0-.80322-0.21875A12.449,12.449,0,0,0,74.03906,79.666Z"/>
    <path class="c0dfac9c-0e74-47f9-b8f3-579e4726995a" d="M83.91016,88.42969a6.115,6.115,0,0,1-1.76367-.23242,2.97747,2.97747,0,0,1-1.30566-.7832,3.52822,3.52822,0,0,1-.81006-1.459,7.883,7.883,0,0,1-.27686-2.2627V82.6875a7.79326,7.79326,0,0,1,.27686-2.24609,3.50638,3.50638,0,0,1,.81006-1.45215,3.01263,3.01263,0,0,1,1.30566-.78223,6.00968,6.00968,0,0,1,1.76367-.23633,6.14881,6.14881,0,0,1,1.76709.23242,2.93055,2.93055,0,0,1,1.30225.7832,3.57005,3.57005,0,0,1,.80322,1.459,7.85587,7.85587,0,0,1,.27686,2.25586v1.00488a7.825,7.825,0,0,1-.27686,2.25293,3.57291,3.57291,0,0,1-.80322,1.45508,2.93055,2.93055,0,0,1-1.30225.7832A6.14881,6.14881,0,0,1,83.91016,88.42969Zm0-8.6543a3.37371,3.37371,0,0,0-1.0083.13672,1.62457,1.62457,0,0,0-.73145.46484,2.11612,2.11612,0,0,0-.44775.875,5.25571,5.25571,0,0,0-.15039,1.36719v1.1416a5.29019,5.29019,0,0,0,.15039,1.37012,2.11464,2.11464,0,0,0,.44775.87891,1.65711,1.65711,0,0,0,.73145.46875,3.69759,3.69759,0,0,0,2.01318,0,1.65721,1.65721,0,0,0,.73486-0.46875,2.11464,2.11464,0,0,0,.44775-0.87891,5.29019,5.29019,0,0,0,.15039-1.37012V82.63281a5.30345,5.30345,0,0,0-.15039-1.37109,2.11651,2.11651,0,0,0-.44775-0.87793A1.647,1.647,0,0,0,84.915,79.916,3.2821,3.2821,0,0,0,83.91016,79.77539Z"/>
    <path class="c0dfac9c-0e74-47f9-b8f3-579e4726995a" d="M95.71582,88.23828a0.19776,0.19776,0,0,1-.10937-0.02344,0.26291,0.26291,0,0,1-.06836-0.08594l-1.8252-3.52051c-0.08643.00488-.17432,0.00684-0.26318,0.00684h-0.27c-0.22314,0-.44189-0.00391-0.65625-0.00977-0.21436-.00781-0.458-0.01953-0.73145-0.03809v3.54785a0.10876,0.10876,0,0,1-.123.123H90.09668a0.10876,0.10876,0,0,1-.123-0.123V78.27832a0.11587,0.11587,0,0,1,.123-0.12988q0.77271-.0542,1.49023-0.07227,0.71777-.01611,1.42188-0.0166a16.43585,16.43585,0,0,1,2.1875.12012,3.55071,3.55071,0,0,1,1.38428.4375,1.7006,1.7006,0,0,1,.72461.88086,4.23294,4.23294,0,0,1,.2085,1.44629V81.751a4.54387,4.54387,0,0,1-.16406,1.31934,1.70528,1.70528,0,0,1-.58105.86133,2.991,2.991,0,0,1-1.26465.5127c0.064,0.0957.12891,0.19727,0.19482,0.30371,0.06592,0.10742.1377,0.22754,0.21533,0.35938l1.72949,3.02148c0.041,0.07324.02051,0.10938-.06152,0.10938H95.71582Zm-2.60449-8.55859c-0.105,0-.21875.001-0.3418,0.00391l-0.3623.00586c-0.11865.00293-.23145,0.00781-0.33838,0.01367-0.10693.00781-.19922,0.01563-0.27686,0.02441v3.21973q0.30762,0.02783.67334,0.03711c0.24365,0.00781.47266,0.01074,0.687,0.01074q0.73828,0,1.23047-.04395a2.149,2.149,0,0,0,.78271-0.19531,0.85117,0.85117,0,0,0,.41016-0.4375,2.05337,2.05337,0,0,0,.11963-0.77246V81.1084a2.0195,2.0195,0,0,0-.123-0.7793,0.83281,0.83281,0,0,0-.42041-0.43066,2.24335,2.24335,0,0,0-.793-0.18164Q93.863,79.68018,93.11133,79.67969Z"/>
    <path class="c0dfac9c-0e74-47f9-b8f3-579e4726995a" d="M101.49219,88.23828a0.10876,0.10876,0,0,1-.123-0.123v-8.2373H98.49121a0.10876,0.10876,0,0,1-.123-0.123V78.27832a0.10876,0.10876,0,0,1,.123-0.123h7.56738a0.10876,0.10876,0,0,1,.123.123v1.47656a0.10876,0.10876,0,0,1-.123.123h-2.87793v8.2373a0.10876,0.10876,0,0,1-.123.123h-1.56543Z"/>
    <path class="c0dfac9c-0e74-47f9-b8f3-579e4726995a" d="M107.67188,88.23828a0.10876,0.10876,0,0,1-.123-0.123V78.27832a0.10876,0.10876,0,0,1,.123-0.123h6.13184a0.10876,0.10876,0,0,1,.123.123v1.47656a0.10876,0.10876,0,0,1-.123.123h-4.43652v2.31738H112.833a0.10876,0.10876,0,0,1,.123.123v1.47656a0.10876,0.10876,0,0,1-.123.123h-3.46582v4.19727a0.10876,0.10876,0,0,1-.123.123h-1.57227Z"/>
    <path class="c0dfac9c-0e74-47f9-b8f3-579e4726995a" d="M115.47168,88.23828a0.10876,0.10876,0,0,1-.123-0.123V78.27832a0.10876,0.10876,0,0,1,.123-0.123H121.583a0.10876,0.10876,0,0,1,.123.123v1.47656a0.10876,0.10876,0,0,1-.123.123h-4.416v2.2832h3.54785a0.10876,0.10876,0,0,1,.123.123v1.46973a0.10876,0.10876,0,0,1-.123.123H117.167v2.63867h4.416a0.10876,0.10876,0,0,1,.123.123v1.47656a0.10876,0.10876,0,0,1-.123.123h-6.11133Z"/>
    <path class="c0dfac9c-0e74-47f9-b8f3-579e4726995a" d="M123.68848,88.23828a0.10876,0.10876,0,0,1-.123-0.123V78.27832a0.10876,0.10876,0,0,1,.123-0.123h1.57227a0.10876,0.10876,0,0,1,.123.123v8.2373h3.88965a0.10876,0.10876,0,0,1,.123.123v1.47656a0.10876,0.10876,0,0,1-.123.123h-5.585Z"/>
    <path class="c0dfac9c-0e74-47f9-b8f3-579e4726995a" d="M134.36621,88.23828a0.10876,0.10876,0,0,1-.123-0.123V78.27832a0.10876,0.10876,0,0,1,.123-0.123h1.57227a0.10876,0.10876,0,0,1,.123.123v9.83691a0.10876,0.10876,0,0,1-.123.123h-1.57227Z"/>
    <path class="c0dfac9c-0e74-47f9-b8f3-579e4726995a" d="M138.48145,88.23828a0.10876,0.10876,0,0,1-.123-0.123V78.27832a0.10876,0.10876,0,0,1,.123-0.123h1.75684a0.20582,0.20582,0,0,1,.11279.02441,0.23065,0.23065,0,0,1,.07178.085l3.5957,6.11816a5.675,5.675,0,0,1,.27.502,0.8333,0.8333,0,0,0,.106.20215l0.00684-6.80859a0.10876,0.10876,0,0,1,.123-0.123h1.56543a0.10876,0.10876,0,0,1,.123.123v9.83691a0.10876,0.10876,0,0,1-.123.123H144.333a0.21586,0.21586,0,0,1-.11279-0.02344,0.24365,0.24365,0,0,1-.07178-0.08594l-3.5752-6.084a4.459,4.459,0,0,1-.28711-0.53711,1.61141,1.61141,0,0,0-.0957-0.208l-0.01367,6.81543a0.10876,0.10876,0,0,1-.123.123h-1.57227Z"/>
    <path class="c0dfac9c-0e74-47f9-b8f3-579e4726995a" d="M150.69727,88.23828a0.10876,0.10876,0,0,1-.123-0.123v-8.2373h-2.87793a0.10876,0.10876,0,0,1-.123-0.123V78.27832a0.10876,0.10876,0,0,1,.123-0.123h7.56738a0.10876,0.10876,0,0,1,.123.123v1.47656a0.10876,0.10876,0,0,1-.123.123h-2.87793v8.2373a0.10876,0.10876,0,0,1-.123.123h-1.56543Z"/>
    <path class="c0dfac9c-0e74-47f9-b8f3-579e4726995a" d="M156.877,88.23828a0.10876,0.10876,0,0,1-.123-0.123V78.27832a0.10876,0.10876,0,0,1,.123-0.123h6.11133a0.10876,0.10876,0,0,1,.123.123v1.47656a0.10876,0.10876,0,0,1-.123.123h-4.416v2.2832h3.54785a0.10876,0.10876,0,0,1,.123.123v1.46973a0.10876,0.10876,0,0,1-.123.123h-3.54785v2.63867h4.416a0.10876,0.10876,0,0,1,.123.123v1.47656a0.10876,0.10876,0,0,1-.123.123H156.877Z"/>
    <path class="c0dfac9c-0e74-47f9-b8f3-579e4726995a" d="M170.70605,88.23828a0.19776,0.19776,0,0,1-.10937-0.02344,0.26291,0.26291,0,0,1-.06836-0.08594l-1.8252-3.52051c-0.08691.00488-.17383,0.00684-0.26367,0.00684h-0.26953c-0.22363,0-.44238-0.00391-0.65625-0.00977-0.21387-.00781-0.458-0.01953-0.73145-0.03809v3.54785a0.10876,0.10876,0,0,1-.123.123h-1.57227a0.10876,0.10876,0,0,1-.123-0.123V78.27832a0.11587,0.11587,0,0,1,.123-0.12988q0.772-.0542,1.49023-0.07227,0.71777-.01611,1.42188-0.0166a16.43585,16.43585,0,0,1,2.1875.12012,3.54265,3.54265,0,0,1,1.38379.4375,1.696,1.696,0,0,1,.72461.88086,4.21988,4.21988,0,0,1,.209,1.44629V81.751a4.54387,4.54387,0,0,1-.16406,1.31934,1.70225,1.70225,0,0,1-.58105.86133,2.98824,2.98824,0,0,1-1.26465.5127c0.06348,0.0957.12891,0.19727,0.19531,0.30371,0.06543,0.10742.1377,0.22754,0.21484,0.35938l1.72949,3.02148c0.041,0.07324.02051,0.10938-.06152,0.10938h-1.86621Zm-2.60449-8.55859c-0.10449,0-.21875.001-0.3418,0.00391l-0.3623.00586c-0.11816.00293-.23145,0.00781-0.33887,0.01367-0.10645.00781-.19922,0.01563-0.27637,0.02441v3.21973q0.30762,0.02783.67285,0.03711c0.24414,0.00781.47363,0.01074,0.6875,0.01074q0.73828,0,1.23047-.04395a2.15455,2.15455,0,0,0,.7832-0.19531,0.85511,0.85511,0,0,0,.41016-0.4375,2.06431,2.06431,0,0,0,.11914-0.77246V81.1084a2.0195,2.0195,0,0,0-.123-0.7793,0.83552,0.83552,0,0,0-.41992-0.43066,2.25134,2.25134,0,0,0-.793-0.18164Q168.853,79.68018,168.10156,79.67969Z"/>
    <path class="c0dfac9c-0e74-47f9-b8f3-579e4726995a" d="M174.5,88.23828a0.10876,0.10876,0,0,1-.123-0.123V78.27832a0.10876,0.10876,0,0,1,.123-0.123h1.75684a0.204,0.204,0,0,1,.1123.02441,0.22252,0.22252,0,0,1,.07227.085l3.5957,6.11816a5.5252,5.5252,0,0,1,.26953.502,0.88857,0.88857,0,0,0,.10645.20215l0.00684-6.80859a0.10876,0.10876,0,0,1,.123-0.123h1.56543a0.10876,0.10876,0,0,1,.123.123v9.83691a0.10876,0.10876,0,0,1-.123.123h-1.75684a0.22026,0.22026,0,0,1-.11328-0.02344,0.24308,0.24308,0,0,1-.07129-0.08594l-3.5752-6.084a4.60461,4.60461,0,0,1-.28711-0.53711,1.61141,1.61141,0,0,0-.0957-0.208l-0.01367,6.81543a0.10876,0.10876,0,0,1-.123.123H174.5Z"/>
    <path class="c0dfac9c-0e74-47f9-b8f3-579e4726995a" d="M184.64453,88.23828a0.10876,0.10876,0,0,1-.123-0.123V78.27832a0.10876,0.10876,0,0,1,.123-0.123h6.11133a0.10876,0.10876,0,0,1,.123.123v1.47656a0.10876,0.10876,0,0,1-.123.123h-4.416v2.2832h3.54785a0.10876,0.10876,0,0,1,.123.123v1.46973a0.10876,0.10876,0,0,1-.123.123h-3.54785v2.63867h4.416a0.10876,0.10876,0,0,1,.123.123v1.47656a0.10876,0.10876,0,0,1-.123.123h-6.11133Z"/>
    <path class="c0dfac9c-0e74-47f9-b8f3-579e4726995a" d="M194.93262,88.23828a0.10876,0.10876,0,0,1-.123-0.123v-8.2373h-2.87793a0.10876,0.10876,0,0,1-.123-0.123V78.27832a0.10876,0.10876,0,0,1,.123-0.123H199.499a0.10876,0.10876,0,0,1,.123.123v1.47656a0.10876,0.10876,0,0,1-.123.123h-2.87793v8.2373a0.10876,0.10876,0,0,1-.123.123h-1.56543Z"/>
    <path class="c0dfac9c-0e74-47f9-b8f3-579e4726995a" d="M204.6123,88.42969a6.11028,6.11028,0,0,1-1.76367-.23242,2.98022,2.98022,0,0,1-1.30566-.7832,3.53976,3.53976,0,0,1-.81055-1.459,7.91926,7.91926,0,0,1-.27637-2.2627V82.6875a7.82913,7.82913,0,0,1,.27637-2.24609,3.51785,3.51785,0,0,1,.81055-1.45215,3.01546,3.01546,0,0,1,1.30566-.78223,6.00505,6.00505,0,0,1,1.76367-.23633,6.14059,6.14059,0,0,1,1.7666.23242,2.92683,2.92683,0,0,1,1.30273.7832,3.56386,3.56386,0,0,1,.80273,1.459,7.82,7.82,0,0,1,.27734,2.25586v1.00488a7.78931,7.78931,0,0,1-.27734,2.25293,3.56668,3.56668,0,0,1-.80273,1.45508,2.92683,2.92683,0,0,1-1.30273.7832A6.14059,6.14059,0,0,1,204.6123,88.42969Zm0-8.6543a3.37936,3.37936,0,0,0-1.00879.13672,1.61888,1.61888,0,0,0-.73047.46484,2.11082,2.11082,0,0,0-.44824.875,5.23466,5.23466,0,0,0-.15039,1.36719v1.1416a5.269,5.269,0,0,0,.15039,1.37012,2.10937,2.10937,0,0,0,.44824.87891,1.65124,1.65124,0,0,0,.73047.46875,3.69935,3.69935,0,0,0,2.01367,0,1.64755,1.64755,0,0,0,.73438-0.46875,2.10937,2.10937,0,0,0,.44824-0.87891,5.269,5.269,0,0,0,.15039-1.37012V82.63281a5.28214,5.28214,0,0,0-.15039-1.37109,2.11123,2.11123,0,0,0-.44824-0.87793,1.63742,1.63742,0,0,0-.73437-0.46777A3.28653,3.28653,0,0,0,204.6123,79.77539Z"/>
    <path class="c0dfac9c-0e74-47f9-b8f3-579e4726995a" d="M211.98145,88.23828a0.16448,0.16448,0,0,1-.10254-0.02344,0.17654,0.17654,0,0,1-.041-0.09961l-1.85937-9.83691a0.09148,0.09148,0,0,1,.10254-0.123h1.78418a0.119,0.119,0,0,1,.13672.123l0.94336,6.86328,0.21191,1.53809q0.0542-.28711.09961-0.50586,0.04395-.21826.10156-0.48828,0.05859-.271.12012-0.53027l1.6543-6.877a0.16289,0.16289,0,0,1,.04395-0.09863,0.17629,0.17629,0,0,1,.10645-0.02441H216.835a0.169,0.169,0,0,1,.10547.02441,0.14222,0.14222,0,0,1,.04492.0918l1.6748,6.84277c0.041,0.16406.08008,0.33887,0.11621,0.52246,0.03613,0.18555.07031,0.35449,0.10254,0.50977s0.06836,0.333.10938,0.5332l0.21191-1.58594,0.92969-6.81543a0.119,0.119,0,0,1,.13672-0.123h1.791a0.09148,0.09148,0,0,1,.10254.123l-1.85254,9.83691a0.17654,0.17654,0,0,1-.041.09961,0.16448,0.16448,0,0,1-.10254.02344h-2.15332a0.1309,0.1309,0,0,1-.15723-0.11621l-1.61328-6.17969c-0.02246-.082-0.04395-0.16992-0.06543-0.2627-0.01953-.09375-0.03809-0.18262-0.05469-0.26758-0.01562-.084-0.0293-0.15625-0.041-0.21875a0.925,0.925,0,0,1-.0166-0.11914,0.98285,0.98285,0,0,1-.0166.10938c-0.01172.05957-.02441,0.13086-0.03809,0.21484-0.01367.085-.03027,0.17578-0.05176,0.27344-0.01953.09863-.042,0.18848-0.06445,0.27051l-1.61328,6.17969a0.19281,0.19281,0,0,1-.05078.09277,0.18453,0.18453,0,0,1-.10645.02344h-2.13965Z"/>
    <path class="c0dfac9c-0e74-47f9-b8f3-579e4726995a" d="M226.02246,88.23828a0.10876,0.10876,0,0,1-.123-0.123V84.85449L222.625,78.26465c-0.03223-.07324-0.00879-0.10937.06836-0.10937h1.791a0.18877,0.18877,0,0,1,.10938.02441,0.24752,0.24752,0,0,1,.06836.085l2.14648,4.57324,2.13965-4.57324a0.24752,0.24752,0,0,1,.06836-0.085,0.18877,0.18877,0,0,1,.10938-0.02441h1.77734c0.07715,0,.10059.03613,0.06836,0.10938l-3.26074,6.58984v3.26074a0.10876,0.10876,0,0,1-.123.123h-1.56543Z"/>
  </g>
  </a>
  <a xlink:href="https://account.skrill.com/signup?rid=41034026" target="_blank">
  <g id="0d0ca357-ebe1-4d06-8e40-1982bb8ded70" data-name="Group">
    <path class="c0dfac9c-0e74-47f9-b8f3-579e4726995a" d="M197.23547,20.849l13.31012-2.38223V69.578H197.23547V20.849Zm19.44063,0V69.578H230V18.46682ZM178.27082,69.578H191.592V32.1945H178.27082V69.578ZM90.25,37.48078c-1.68369-.10978-5.5816-0.3616-5.5816-3.87091,0-4.23345,5.61141-4.23345,7.71623-4.23345a46.37542,46.37542,0,0,1,11.91575,2.11673s1.90944,0.67295,3.53406,1.3624l0.151,0.04116V21.30046l-0.20691-.06141c-4.03985-1.41265-8.73653-2.77223-17.44428-2.77223C75.31975,18.46682,70,27.213,70,34.70583c0,4.31952,1.85122,14.48576,19.0465,15.6585,1.45756,0.08888,5.32575.31219,5.32575,3.93776,0,2.99387-3.16684,4.759-8.49353,4.759a41.80317,41.80317,0,0,1-14.9398-2.9004V68.103A69.682,69.682,0,0,0,88.6954,70.12728c14.6803,0,21.25576-8.27555,21.25576-16.477C109.95116,44.35109,102.593,38.30758,90.25,37.48078ZM170.76337,31.647c-12.3095.39554-18.55993,5.91808-18.55993,16.89724V69.578h13.432V52.42527c0-6.57359.86064-9.39261,8.66106-9.66083V31.84012A18.6034,18.6034,0,0,0,170.76337,31.647Zm-36.1319.50448A46.41473,46.41473,0,0,1,127.04387,45.165V18.46682l-13.74409,2.71645V69.578h13.74409V54.61887c3.98126,5.96936,5.94648,14.95911,5.94648,14.95911h16.46289c-1.62837-6.77047-8.75219-19.253-8.75219-19.253a60.28035,60.28035,0,0,0,9.64752-18.17348H134.63147Zm50.29628-3.54316a6.56468,6.56468,0,1,0-6.56074-6.56262A6.564,6.564,0,0,0,184.92775,28.60831Z"/>
  </g>
  </a>
</svg>
